<svg xmlns:xlink="http://www.w3.org/1999/xlink" xmlns="http://www.w3.org/2000/svg" version="1.0" width="724.44" height="1006.71"><defs><linearGradient id="b"><stop style="stop-color:#fac13b;stop-opacity:0" offset="0"/><stop style="stop-color:#f9c13b;stop-opacity:1" offset=".1"/><stop style="stop-color:#fa943b;stop-opacity:1" offset=".5"/><stop style="stop-color:#f9c13b;stop-opacity:1" offset=".9"/><stop style="stop-color:#fac13b;stop-opacity:0" offset="1"/></linearGradient><linearGradient id="a"><stop style="stop-color:#404040;stop-opacity:0" offset="0"/><stop style="stop-color:#404040;stop-opacity:1" offset=".1"/><stop style="stop-color:black;stop-opacity:1" offset=".5"/><stop style="stop-color:#404040;stop-opacity:1" offset=".9"/><stop style="stop-color:#404040;stop-opacity:0" offset="1"/></linearGradient><linearGradient x1="590.012" y1="64.562" x2="590.012" y2="1031.273" id="h" xlink:href="#a" gradientUnits="userSpaceOnUse"/><linearGradient x1="263.793" y1="64.562" x2="263.793" y2="1031.273" id="f" xlink:href="#a" gradientUnits="userSpaceOnUse"/><linearGradient x1="430.012" y1="64.562" x2="430.012" y2="1031.273" id="d" xlink:href="#a" gradientUnits="userSpaceOnUse"/><linearGradient x1="350.012" y1="1031.273" x2="350.012" y2="64.562" id="i" xlink:href="#b" gradientUnits="userSpaceOnUse"/><linearGradient x1="81.575" y1="1031.273" x2="81.575" y2="64.562" id="g" xlink:href="#b" gradientUnits="userSpaceOnUse"/><linearGradient x1="350.012" y1="64.562" x2="350.012" y2="1031.273" id="e" xlink:href="#b" gradientUnits="userSpaceOnUse"/><linearGradient x1="81.575" y1="64.562" x2="81.575" y2="1031.273" id="c" xlink:href="#b" gradientUnits="userSpaceOnUse"/></defs><path d="M334.003 1031.273h16s3.386-290.232-126.222-483.318C195.748 506.543 110.646 369.03 97.575 64.562h-16c13.07 304.47 98.173 441.98 126.206 483.393 129.608 193.086 126.222 483.318 126.222 483.318z" style="fill:url(#c);fill-opacity:1;fill-rule:evenodd;stroke:none;stroke-width:1.00000477px;stroke-linecap:butt;stroke-linejoin:miter;stroke-opacity:1" transform="translate(-61.575 -44.562)"/><path d="M350.003 1031.273h80s3.386-290.232-126.222-483.318C275.748 506.543 190.646 369.03 177.575 64.562h-80c13.07 304.47 98.173 441.98 126.206 483.393 129.608 193.086 126.222 483.318 126.222 483.318z" style="fill:url(#d);fill-opacity:1;fill-rule:evenodd;stroke:none;stroke-width:1.00000477px;stroke-linecap:butt;stroke-linejoin:miter;stroke-opacity:1" transform="translate(-61.575 -44.562)"/><path d="M430.003 1031.273h80s3.386-290.232-126.222-483.318C355.748 506.543 270.646 369.03 257.575 64.562h-80c13.07 304.47 98.173 441.98 126.206 483.393 129.608 193.086 126.222 483.318 126.222 483.318z" style="fill:url(#e);fill-opacity:1;fill-rule:evenodd;stroke:none;stroke-width:1.00000477px;stroke-linecap:butt;stroke-linejoin:miter;stroke-opacity:1" transform="translate(-61.575 -44.562)"/><path d="M510.003 1031.273h80s3.386-290.232-126.222-483.318C435.748 506.543 350.646 369.03 337.575 64.562h-80c13.07 304.47 98.173 441.98 126.206 483.393 129.608 193.086 126.222 483.318 126.222 483.318z" style="fill:url(#f);fill-opacity:1;fill-rule:evenodd;stroke:none;stroke-width:1.00000477px;stroke-linecap:butt;stroke-linejoin:miter;stroke-opacity:1" transform="translate(-61.575 -44.562)"/><path d="M590.003 1031.273h80s3.386-290.232-126.222-483.318C515.748 506.543 430.646 369.03 417.575 64.562h-80c13.07 304.47 98.173 441.98 126.206 483.393 129.608 193.086 126.222 483.318 126.222 483.318z" style="fill:url(#g);fill-opacity:1;fill-rule:evenodd;stroke:none;stroke-width:1.00000477px;stroke-linecap:butt;stroke-linejoin:miter;stroke-opacity:1" transform="translate(-61.575 -44.562)"/><path d="M670.003 1031.273h80s3.386-290.232-126.222-483.318C595.748 506.543 510.646 369.03 497.575 64.562h-80c13.07 304.47 98.173 441.98 126.206 483.393 129.608 193.086 126.222 483.318 126.222 483.318z" style="fill:url(#h);fill-opacity:1;fill-rule:evenodd;stroke:none;stroke-width:1.00000477px;stroke-linecap:butt;stroke-linejoin:miter;stroke-opacity:1" transform="translate(-61.575 -44.562)"/><path d="M750.003 1031.273h16s3.386-290.232-126.222-483.318C611.748 506.543 526.646 369.03 513.575 64.562h-16c13.07 304.47 98.173 441.98 126.206 483.393 129.608 193.086 126.222 483.318 126.222 483.318z" style="fill:url(#i);fill-opacity:1;fill-rule:evenodd;stroke:none;stroke-width:1.00000477px;stroke-linecap:butt;stroke-linejoin:miter;stroke-opacity:1" transform="translate(-61.575 -44.562)"/></svg>